<svg width="34" height="50" viewBox="0 0 34 50" fill="none" xmlns="http://www.w3.org/2000/svg">
<path d="M16.8383 2.00424C16.5642 2.03873 16.3621 2.27683 16.3728 2.55277V46.0352L2.89811 34.0558C2.79575 33.9568 2.65815 33.903 2.51573 33.906C2.29283 33.913 2.09775 34.0581 2.02728 34.2695C1.95682 34.4809 2.0258 34.7141 2.20012 34.8532L16.5559 47.614C16.7562 47.7883 17.0537 47.7883 17.2539 47.614L31.6098 34.8532C31.7296 34.7649 31.8071 34.6307 31.823 34.4827C31.839 34.3347 31.7926 34.1867 31.6947 34.0747C31.5968 33.9631 31.4562 33.8971 31.3075 33.8934C31.1588 33.8897 31.0152 33.9486 30.9118 34.0558L17.437 46.0351V2.55276C17.443 2.39662 17.3799 2.24566 17.2649 2.13996C17.1496 2.03426 16.9938 1.98456 16.8388 2.00422L16.8383 2.00424Z" fill="#B52184" stroke="#B52184" stroke-width="2.61398"/>
</svg>
