<svg width="97" height="97" viewBox="0 0 97 97" fill="none" xmlns="http://www.w3.org/2000/svg">
<path d="M87.3896 19.5269C103.392 41.0044 98.9535 71.3875 77.4741 87.3917C55.9965 103.392 25.6132 98.952 9.60885 77.4727C-6.39189 55.9953 -1.95327 25.6103 19.5279 9.60966C41.0038 -6.39275 71.3907 -1.95239 87.3896 19.5269Z" fill="#E8901E"/>
<path d="M18.7803 66.8026C18.4539 66.8026 18.1275 66.7883 17.7956 66.758C16.7538 66.6635 15.7619 66.3709 14.8306 65.9249C13.9225 65.4896 13.0698 64.9116 12.2777 64.2283C11.5801 61.2972 11.1787 58.3197 11.0681 55.3405C11.4409 55.5635 11.8352 55.6848 12.242 55.6848C12.2473 55.6848 12.2527 55.6848 12.2581 55.6848C14.4221 55.6669 16.1793 52.2702 16.4272 47.8816C16.4272 47.8798 16.4272 47.8798 16.4272 47.878C16.4272 47.8655 16.4291 47.853 16.4291 47.8406C16.4291 47.8388 16.4291 47.8388 16.4291 47.8388C16.4291 47.8263 16.4308 47.8138 16.4308 47.8013C16.4308 47.7977 16.4308 47.7942 16.4308 47.7906C16.4326 47.7835 16.4326 47.7746 16.4326 47.7656C16.4326 47.7621 16.4326 47.7567 16.4326 47.7531C16.4344 47.7424 16.4344 47.7317 16.4344 47.721C16.4344 47.7157 16.4362 47.7103 16.4362 47.7032C16.4362 47.6979 16.4362 47.6925 16.4362 47.6871C16.4362 47.6782 16.438 47.6711 16.438 47.6622C16.438 47.655 16.438 47.6461 16.438 47.6372C16.4397 47.6318 16.4398 47.6247 16.4398 47.6193C16.4398 47.614 16.4398 47.6086 16.4398 47.6033C16.4398 47.5962 16.4415 47.589 16.4415 47.5837C16.4415 47.5783 16.4415 47.5748 16.4415 47.5694C16.4415 47.5569 16.4434 47.5444 16.4434 47.5319C16.4434 47.5284 16.4434 47.5248 16.4434 47.523C16.4451 47.4963 16.4451 47.4677 16.4469 47.4409C16.4469 47.4409 16.4469 47.4409 16.4469 47.4392C16.4523 47.2608 16.4558 47.0824 16.4558 46.9022C16.4558 46.8968 16.4558 46.8933 16.4558 46.8897C16.4558 46.8826 16.4558 46.8736 16.4558 46.8665V46.8647C16.4558 46.8487 16.4558 46.8326 16.4558 46.8165C16.4558 46.8112 16.4558 46.8076 16.4558 46.8041C16.4558 46.7969 16.4558 46.7898 16.4558 46.7827C16.4558 46.7755 16.4558 46.7702 16.4558 46.7648C16.4558 46.7541 16.4558 46.7452 16.4558 46.7363C16.4558 46.7274 16.4558 46.7202 16.4558 46.7131C16.4558 46.7095 16.4558 46.7042 16.4558 46.7006C16.4558 46.6881 16.4558 46.6756 16.4558 46.6631C16.4558 46.6506 16.4558 46.6399 16.4558 46.6275C16.4166 42.8204 15.2587 39.5807 13.6531 38.2998C15.7832 32.2556 19.1943 26.6075 23.822 21.8032C25.6506 21.1877 27.6416 20.1423 29.5594 18.7133C31.7109 17.1113 33.4252 15.2845 34.5456 13.5326C39.7228 10.6372 45.2817 8.84786 50.921 8.11286C50.657 7.80601 50.3894 7.50273 50.1182 7.20302C50.7283 6.68923 51.0905 6.11835 51.1261 5.54212C51.2243 5.55639 51.3224 5.57244 51.4187 5.58672C52.0913 6.32529 52.7442 7.08527 53.3811 7.86131C54.5318 7.77389 55.6861 7.73108 56.8368 7.73108C57.174 7.73108 57.5129 7.73466 57.85 7.74179C58.3121 8.02545 58.7296 8.32872 59.0988 8.65341C67.1269 15.7055 62.0354 26.4077 48.6036 32.2253C35.1736 38.0429 36.0174 57.1352 28.1589 63.0509C25.4151 65.1185 22.2823 66.8026 18.7803 66.8026ZM28.794 36.4212C27.5773 36.4212 26.3535 37.3382 25.8254 38.7618C25.176 40.5119 25.8218 42.3619 27.2651 42.8971C27.5309 42.9952 27.8057 43.0416 28.0804 43.0416C29.1847 43.0416 30.2961 42.2852 30.8866 41.0775C30.8902 41.0685 30.8955 41.0596 30.8991 41.0507C30.8991 41.0489 30.9009 41.0489 30.9009 41.0471C30.9045 41.0382 30.9098 41.0293 30.9134 41.0204C30.9223 41.0025 30.9312 40.9829 30.9401 40.9651C30.9401 40.9633 30.9401 40.9633 30.9401 40.9633C30.9437 40.9544 30.9473 40.9454 30.9508 40.9365C30.9526 40.9365 30.9527 40.9347 30.9527 40.9329C30.958 40.924 30.9616 40.9169 30.9651 40.908C30.9651 40.9062 30.9651 40.9044 30.9669 40.9044C30.9704 40.8955 30.974 40.8866 30.9776 40.8794C30.9776 40.8777 30.9776 40.8759 30.9794 40.8741C30.983 40.8652 30.9866 40.858 30.9901 40.8491C30.9901 40.8473 30.9901 40.8473 30.9901 40.8473C30.9937 40.8384 30.9972 40.8295 31.0008 40.8223C31.0008 40.8206 31.0026 40.8188 31.0026 40.817C31.0062 40.8081 31.0097 40.7991 31.0133 40.792C31.0133 40.7902 31.0133 40.7885 31.015 40.7867C31.0186 40.7777 31.0222 40.7706 31.024 40.7617C31.0258 40.7599 31.0258 40.7581 31.0276 40.7563C31.0294 40.7474 31.0329 40.7385 31.0365 40.7314C31.0365 40.7296 31.0365 40.7278 31.0383 40.7278C31.0419 40.7171 31.0454 40.7082 31.0489 40.6993C31.0507 40.6903 31.0543 40.6814 31.0579 40.6725C31.0597 40.6689 31.0614 40.6636 31.0632 40.66C31.065 40.6564 31.065 40.6511 31.0668 40.6457C31.0704 40.6368 31.0739 40.6279 31.0775 40.619C31.0775 40.6172 31.0775 40.6172 31.0775 40.6172C31.5628 39.2203 31.2309 37.7735 30.3318 36.9939C30.3318 36.9939 30.3318 36.9939 30.33 36.9939C30.1213 36.8119 29.8805 36.6674 29.6111 36.5675C29.3435 36.4676 29.0688 36.4212 28.794 36.4212ZM37.7961 20.9772C36.492 20.9772 35.129 21.2466 33.8071 21.8121C29.3417 23.7281 27.0261 28.3219 28.6335 32.0719C29.7663 34.7122 32.5421 36.2321 35.6427 36.2321C35.7962 36.2321 35.9497 36.2286 36.1049 36.2214C37.2538 36.1661 38.4383 35.9021 39.5926 35.4133C39.605 35.4079 39.6194 35.4026 39.6318 35.3954C39.6461 35.3901 39.6586 35.3847 39.671 35.3794C39.6764 35.3776 39.68 35.3758 39.6836 35.374C39.6943 35.3687 39.7049 35.3651 39.7156 35.3598C39.7228 35.3562 39.7282 35.3544 39.7353 35.3508C39.7443 35.3473 39.7532 35.3437 39.7621 35.3401C39.771 35.3348 39.7781 35.3312 39.787 35.3277C39.7888 35.3277 39.7888 35.3277 39.7906 35.3259C41.1607 34.714 42.3204 33.8469 43.2177 32.8318C43.2213 32.8283 43.223 32.8265 43.2248 32.8247C43.2319 32.8158 43.2391 32.8069 43.2462 32.7997C43.2515 32.7944 43.2569 32.7873 43.2605 32.7819C43.2641 32.7783 43.2676 32.7748 43.2712 32.7712C43.2783 32.7623 43.2854 32.7533 43.2944 32.7444C43.2962 32.7426 43.2979 32.7391 43.3015 32.7373C43.3086 32.7266 43.3176 32.7159 43.3265 32.707C43.3265 32.7052 43.3283 32.7052 43.3283 32.7034C45.2086 30.5002 45.8759 27.6315 44.8055 25.1375C43.6744 22.4954 40.8985 20.9772 37.7961 20.9772ZM38.8362 15.9517C38.8951 15.9535 38.9539 15.9553 39.0146 15.9553C39.5195 15.9553 40.085 15.8804 40.6648 15.7252C42.4666 15.2435 43.7404 14.157 43.5102 13.3025C43.355 12.7227 42.5504 12.398 41.4889 12.398C40.9823 12.398 40.4167 12.4711 39.8352 12.6281C38.0333 13.1098 36.7613 14.1945 36.9915 15.049C37.0521 15.2774 37.2127 15.4647 37.45 15.611C37.7693 15.8054 38.2278 15.9214 38.763 15.9482C38.7666 15.9482 38.7683 15.9481 38.7719 15.9499C38.7755 15.9499 38.7808 15.9499 38.7862 15.9499C38.7898 15.9499 38.7951 15.9499 38.8005 15.9499C38.804 15.9499 38.8076 15.9499 38.8112 15.9517C38.8165 15.9517 38.8236 15.9517 38.8308 15.9517C38.8326 15.9517 38.8344 15.9517 38.8362 15.9517ZM52.3732 9.8808C51.9718 9.8808 51.5223 9.96108 51.0673 10.127C49.8167 10.5873 49.0157 11.5346 49.2744 12.241C49.4403 12.6941 49.9987 12.9386 50.7051 12.9386C51.1065 12.9386 51.5579 12.86 52.0092 12.6941C53.2616 12.2339 54.0626 11.2884 53.8021 10.5783C53.638 10.127 53.0797 9.8808 52.3732 9.8808ZM57.5718 10.6515C57.3274 10.6515 57.0527 10.6996 56.7761 10.7995C56.0179 11.0796 55.5273 11.6559 55.6861 12.0858C55.7877 12.3605 56.1267 12.5104 56.5585 12.5104C56.8029 12.5104 57.0758 12.4622 57.3505 12.3605C58.1105 12.0804 58.5993 11.506 58.4406 11.0761C58.3389 10.7995 58.0018 10.6515 57.5718 10.6515ZM7.98362 44.9523C7.02025 44.2155 6.06934 43.4609 5.13452 42.6866C5.80709 42.4494 6.49569 41.8392 7.11296 40.9633C7.11474 40.9597 7.11836 40.9561 7.12193 40.9526C7.12193 40.9508 7.12367 40.949 7.12367 40.9472C7.16113 40.8955 7.19679 40.842 7.23247 40.7885C7.67133 41.147 8.11202 41.502 8.55802 41.8517C8.27971 42.7829 8.08174 43.8302 7.98362 44.9523Z" fill="#F5CE26"/>
<path d="M13.1161 67.2771C9.72115 65.2648 6.59203 62.7065 3.86429 59.6202C2.35681 53.7027 2.06602 47.5854 2.93483 41.6393C3.22741 42.2209 3.63421 42.6152 4.14086 42.749C4.26753 42.7811 4.39596 42.7972 4.52798 42.7972C4.72244 42.7972 4.92047 42.7615 5.12207 42.6919C4.66179 46.7148 4.90613 50.7787 6.21024 54.6803C7.26637 57.8469 9.37154 61.7271 12.2777 64.2283C12.5203 65.2505 12.8003 66.2674 13.1161 67.2771Z" fill="#F2BA23"/>
<path d="M12.2777 64.2283C9.37151 61.7271 7.26634 57.8469 6.21021 54.6803C4.9061 50.7788 4.66176 46.7148 5.12203 42.6919C5.1256 42.6901 5.13092 42.6884 5.13449 42.6866C6.06931 43.4608 7.02022 44.2155 7.98358 44.9522C7.93363 45.5285 7.91037 46.1225 7.91572 46.7327C7.94784 50.8287 9.27869 54.2718 11.068 55.3404C11.1787 58.3197 11.5801 61.2972 12.2777 64.2283Z" fill="#F1E037"/>
<path d="M8.30128 30.8516C8.05866 30.559 7.76784 30.3574 7.43245 30.2682C7.30578 30.2361 7.1774 30.22 7.04716 30.22C6.71177 30.22 6.36563 30.3271 6.01953 30.5251C9.08267 23.2054 14.0868 16.5868 20.9107 11.5024C21.8562 10.7977 22.8195 10.1359 23.8007 9.51503C23.5616 9.67915 23.3244 9.84863 23.0889 10.0252C20.0133 12.3159 17.8296 15.0632 16.9983 17.4038C13.8906 20.5365 11.1824 24.3436 9.1344 28.9052C8.84717 29.5457 8.56888 30.1951 8.30128 30.8516ZM26.8995 7.71499C32.7118 4.64117 38.9755 2.93032 45.2712 2.51822C45.4228 2.64488 45.5727 2.76976 45.7225 2.89821C45.2765 2.90534 44.818 2.93568 44.3506 2.99098C41.3232 3.34778 38.9077 4.64295 38.3921 6.06301C37.2146 6.30385 36.0229 6.59641 34.8276 6.94786C34.1836 6.50365 33.3166 6.28958 32.2997 6.28958C30.7583 6.28958 28.8726 6.78196 26.8995 7.71499Z" fill="#F2BA23"/>
<path d="M8.55827 41.8518C8.11227 41.5021 7.67159 41.1471 7.23273 40.7886C7.85534 39.8555 8.39416 38.6513 8.75453 37.2901C9.40926 34.8015 9.2844 32.4698 8.54582 31.2049C8.54403 31.2031 8.54403 31.2014 8.54225 31.2014C8.54046 31.196 8.53689 31.1907 8.5351 31.1871C8.53332 31.1853 8.53153 31.1818 8.53153 31.18C8.52796 31.1764 8.52617 31.1746 8.52439 31.171C8.45481 31.0551 8.38167 30.948 8.30139 30.8517C8.56899 30.1952 8.84728 29.5458 9.1345 28.9054C11.1825 24.3437 13.8907 20.5366 16.9984 17.404C16.4632 18.9061 16.4846 20.2405 17.184 21.1789C17.8244 22.037 18.9448 22.4473 20.3506 22.4473C21.3799 22.4473 22.5627 22.2279 23.8222 21.8033C19.1945 26.6076 15.7835 32.2557 13.6534 38.2999C13.5642 38.2267 13.4714 38.1607 13.3787 38.1018C12.9826 37.8485 12.5616 37.7112 12.1281 37.7112C12.1228 37.7112 12.1156 37.7112 12.1103 37.7112C10.6081 37.7254 9.29864 39.3738 8.55827 41.8518ZM12.3529 31.8097C11.9746 31.8097 11.4912 32.1326 11.1433 32.6571C10.6956 33.3332 10.6437 34.0861 11.0273 34.3394C11.1129 34.3965 11.2129 34.4233 11.3217 34.4233C11.6982 34.4233 12.1816 34.0986 12.5295 33.5759C12.9773 32.8997 13.029 32.1469 12.6472 31.8936C12.5616 31.8365 12.4617 31.8097 12.3529 31.8097ZM13.5678 25.7299C12.9469 25.7299 12.1512 26.2615 11.5804 27.1231C10.8454 28.2346 10.758 29.4727 11.3895 29.8901C11.5304 29.9829 11.6946 30.0275 11.873 30.0275C12.4956 30.0275 13.2895 29.4941 13.8604 28.6342C14.5954 27.5228 14.6827 26.2829 14.053 25.8672C13.912 25.7727 13.748 25.7299 13.5678 25.7299ZM17.7888 23.4374C17.4105 23.4374 16.927 23.7603 16.5792 24.2848C16.1314 24.961 16.0796 25.7138 16.4632 25.9653C16.5488 26.0224 16.6488 26.051 16.7594 26.051C17.1376 26.051 17.6192 25.7263 17.9653 25.2036C18.4131 24.5275 18.4667 23.7746 18.0831 23.5195C17.9975 23.4642 17.8976 23.4374 17.7888 23.4374ZM34.5459 13.5327C36.0587 11.1689 36.4922 8.93535 35.4664 7.55811C35.2898 7.32083 35.0757 7.11745 34.8277 6.94797C36.023 6.59652 37.2147 6.30396 38.3922 6.06312C38.3048 6.30396 38.2727 6.54836 38.3012 6.79276C38.4689 8.21996 40.6793 9.17439 43.5069 9.17439C44.0118 9.17439 44.5345 9.14406 45.0697 9.08162C45.084 9.07984 45.0965 9.07807 45.1108 9.07629C45.1108 9.07629 45.1107 9.07629 45.1125 9.07629C47.0285 8.84437 48.6984 8.23423 49.7902 7.45641C49.792 7.45462 49.7938 7.45285 49.7974 7.45107C49.8009 7.44929 49.8062 7.44571 49.8098 7.44214C49.8134 7.43857 49.8187 7.43678 49.8223 7.43321C49.8241 7.43143 49.8276 7.42966 49.8294 7.42788C49.8348 7.42431 49.8401 7.42073 49.8437 7.41716C49.8455 7.41716 49.8455 7.41538 49.8473 7.41538C49.9418 7.3458 50.0328 7.27445 50.1184 7.20309C50.3896 7.5028 50.6572 7.80608 50.9212 8.11292C45.282 8.84793 39.723 10.6373 34.5459 13.5327Z" fill="#F1E037"/>
<path d="M61.9017 8.00903C60.5565 7.86096 59.2042 7.77176 57.8501 7.74143C56.2035 6.73348 53.9985 5.99489 51.4188 5.58636C51.3189 5.47575 51.2172 5.36515 51.1155 5.25454C51.0174 4.53202 50.3966 3.9326 49.4368 3.51872C49.0621 3.14765 48.6803 2.78371 48.2932 2.42691C51.1476 2.4287 53.9913 2.69808 56.7904 3.22614C58.6101 4.64263 60.3228 6.23753 61.9017 8.00903Z" fill="#F2BA23"/>
<path d="M53.3812 7.86108C52.7443 7.08505 52.0913 6.32507 51.4188 5.58649C53.9984 5.99503 56.2034 6.73362 57.8501 7.74157C57.5129 7.73443 57.174 7.73086 56.8368 7.73086C55.6861 7.73086 54.5318 7.77367 53.3812 7.86108Z" fill="#F1E037"/>
<path d="M48.6072 96.2292C34.0747 96.2292 19.7241 89.6017 10.3742 77.0513C5.77856 70.8823 2.90094 63.964 1.6557 56.8726L1.79664 57.0724C2.45673 57.9573 3.14532 58.8065 3.86428 59.62C5.30219 65.2574 7.84265 70.7146 11.5338 75.6705C11.6925 75.8828 11.8531 76.0933 12.0136 76.3021C12.2937 76.7766 12.6184 77.2565 12.9877 77.7257C12.1564 76.9621 11.3482 76.1647 10.5614 75.3316C14.0385 79.9557 18.1738 83.7841 22.7284 86.7759C24.152 88.7668 26.8458 90.797 30.2337 92.2224C32.9061 93.3463 35.5429 93.8994 37.7247 93.8994C38.4419 93.8994 39.1109 93.8405 39.7139 93.721C42.686 94.3043 45.7045 94.6005 48.7249 94.6005C53.8289 94.6005 58.9365 93.7549 63.8264 92.0297C65.0592 92.0119 66.5435 91.6801 68.0421 91.0271C69.8172 90.2547 71.2479 89.1878 72.0757 88.1264C73.3067 87.3824 74.5127 86.5725 75.6883 85.6966C78.5499 83.5647 81.085 81.1545 83.2846 78.5285C84.3711 77.9469 85.5343 76.9764 86.5654 75.7133C88.2121 73.6956 89.0648 71.4924 88.8917 70.0349C91.7443 64.4189 93.3981 58.2623 93.796 51.972C94.2901 51.0943 94.6345 49.8383 94.7058 48.4308C94.804 46.488 94.3579 44.7825 93.6247 43.9333C93.4606 42.3813 93.218 40.8328 92.8987 39.2914C93.7193 36.842 93.1644 32.8066 91.2359 28.7533C89.5625 25.2353 87.2451 22.5272 85.0829 21.2784C84.8171 20.9002 84.5424 20.5238 84.2658 20.1509C83.7378 19.4409 83.1936 18.7523 82.6352 18.0815C82.637 18.0797 82.6389 18.0761 82.6406 18.0744C83.3382 16.9754 82.0323 14.8971 79.7238 13.4306C78.3519 12.56 76.9371 12.1016 75.8667 12.1016C75.1335 12.1016 74.5644 12.3174 74.2807 12.7616C73.585 13.8552 74.882 15.9247 77.178 17.3911C77.1851 17.3947 77.1923 17.4 77.1994 17.4054C77.4099 17.5392 77.624 17.664 77.8363 17.7782C78.9977 18.4044 80.1501 18.7345 81.0546 18.7345C81.1795 18.7345 81.3008 18.7273 81.4167 18.7148C81.4185 18.7148 81.4203 18.7148 81.4239 18.713C81.4257 18.713 81.4275 18.713 81.4293 18.713C81.8236 18.6684 82.1535 18.5489 82.3944 18.3509C82.9082 19.1323 83.3952 19.9244 83.8573 20.7254C83.4398 20.5934 83.0366 20.5238 82.6513 20.5238C82.2249 20.5238 81.8199 20.6094 81.4471 20.786C79.0708 21.9153 78.7872 26.4217 80.5926 31.3597C80.5944 31.3615 80.5943 31.3633 80.5943 31.3669C80.5997 31.3794 80.6051 31.3919 80.6086 31.4043C80.6104 31.4079 80.6104 31.4097 80.6122 31.4133C80.6176 31.4258 80.6229 31.44 80.6265 31.4525C80.6301 31.4597 80.6318 31.465 80.6336 31.4721C80.6372 31.4775 80.6389 31.4846 80.6407 31.4918C80.6514 31.5203 80.6621 31.5489 80.6728 31.5774C80.6746 31.5792 80.6746 31.581 80.6764 31.5827C80.8816 32.1286 81.1135 32.6799 81.3704 33.2312C81.3722 33.2365 81.3758 33.2401 81.3775 33.2454C81.3811 33.2544 81.3847 33.2615 81.3883 33.2704C81.3918 33.2776 81.3953 33.2829 81.3989 33.29C81.4042 33.3007 81.4097 33.3132 81.415 33.3239C81.4186 33.3328 81.4222 33.34 81.4257 33.3471C81.4275 33.3543 81.431 33.3596 81.4346 33.3667C81.44 33.3792 81.4471 33.3935 81.4542 33.406C81.4613 33.4256 81.4703 33.4435 81.4792 33.4631C81.4828 33.4684 81.4845 33.4738 81.4881 33.4791C81.4934 33.4916 81.5006 33.5059 81.5059 33.5184C81.5095 33.5255 81.5131 33.5327 81.5167 33.5398C81.522 33.5505 81.5273 33.5612 81.5327 33.5737C81.538 33.5826 81.5417 33.5897 81.5452 33.5987C81.5506 33.6076 81.556 33.6183 81.5595 33.629C81.5649 33.6379 81.5685 33.6468 81.5738 33.6557C81.5774 33.6647 81.5827 33.6736 81.5863 33.6825C81.5916 33.6932 81.597 33.7021 81.6005 33.7111C81.6059 33.72 81.6095 33.7289 81.6148 33.7378C81.6184 33.7467 81.6237 33.7575 81.629 33.7664C81.6326 33.7753 81.6362 33.7842 81.6416 33.7931C81.6469 33.802 81.6505 33.8127 81.6559 33.8234C81.6594 33.8306 81.6648 33.8377 81.6683 33.8466C81.6737 33.8573 81.679 33.868 81.6843 33.8787C81.6879 33.8859 81.6915 33.893 81.6951 33.9002C81.7004 33.9109 81.7057 33.9216 81.7111 33.9341C81.7147 33.9394 81.7182 33.9465 81.7218 33.9537C81.7272 33.9644 81.7325 33.9769 81.7397 33.9876C81.7414 33.9929 81.7451 34.0001 81.7486 34.0054C81.754 34.0179 81.7611 34.0304 81.7682 34.0429C81.77 34.0482 81.7718 34.0518 81.7735 34.0554C81.7807 34.0696 81.7878 34.0839 81.795 34.0982C81.7968 34.1 81.7985 34.1017 81.7985 34.1053C84.1267 38.6224 87.4913 41.6356 90.0371 41.6356C90.096 41.6356 90.1531 41.6338 90.2119 41.6302C90.3118 43.1823 90.3368 44.7343 90.2869 46.2793C90.1548 46.7966 90.0639 47.3622 90.0193 47.9562C90.0193 47.958 90.0193 47.9598 90.0193 47.9616C90.0193 47.9669 90.0192 47.9741 90.0174 47.9812C90.0174 47.983 90.0174 47.983 90.0174 47.9848C90.0174 47.9973 90.0157 48.0115 90.0157 48.024C90.0157 48.0258 90.0157 48.0276 90.0157 48.0294C90.0139 48.0347 90.0139 48.0401 90.0139 48.0454C90.0139 48.049 90.0139 48.0544 90.0139 48.0579C90.0121 48.0633 90.0121 48.0668 90.0121 48.0722C90.0121 48.0775 90.0121 48.0829 90.0121 48.0882C90.0103 48.0954 90.0103 48.1007 90.0103 48.1079C90.0103 48.1132 90.0103 48.1204 90.0085 48.1257C90.0085 48.1293 90.0085 48.1328 90.0085 48.1364C90.0085 48.1435 90.0085 48.1489 90.0067 48.1542C90.0067 48.1578 90.0067 48.1614 90.0067 48.165C90.0067 48.1739 90.0068 48.1828 90.005 48.1917C90.005 48.2024 90.005 48.2113 90.0032 48.222C90.0032 48.2256 90.0032 48.2274 90.0032 48.231C90.0032 48.2381 90.0032 48.2452 90.0032 48.2506C90.0032 48.2542 90.0032 48.2595 90.0014 48.2613C90.0014 48.2684 90.0014 48.2738 90.0014 48.2809C90.0014 48.2845 90.0014 48.2881 90.0014 48.2934C90.0014 48.2988 89.9997 48.3059 89.9997 48.3112C89.9997 48.3148 89.9997 48.3184 89.9997 48.322C89.9997 48.3309 89.9996 48.3398 89.9978 48.3487C89.9978 48.3541 89.9978 48.3594 89.9978 48.3648C89.9978 48.3683 89.9978 48.3737 89.9978 48.3772C89.9978 48.3826 89.9978 48.3898 89.9978 48.3951C89.9978 48.3987 89.9979 48.4004 89.9961 48.404C89.9961 48.4111 89.9961 48.4165 89.9961 48.4218C89.9961 48.4272 89.9961 48.4308 89.9961 48.4343C89.9961 48.4397 89.9961 48.445 89.9961 48.4504C89.9961 48.4522 89.9961 48.454 89.9961 48.454C89.9943 48.47 89.9943 48.4861 89.9943 48.5004C89.9943 48.5021 89.9943 48.5021 89.9943 48.5039C89.9943 48.5111 89.9943 48.5182 89.9943 48.5253C89.9943 48.5271 89.9943 48.5289 89.9943 48.5307C89.9943 48.5378 89.9943 48.5449 89.9925 48.5521C89.9925 48.5539 89.9925 48.5556 89.9925 48.5556C89.9872 48.9695 90.005 49.3709 90.0443 49.7527C88.7348 62.0266 82.621 73.6207 72.1079 81.4525C70.2561 82.8315 68.3311 84.0482 66.349 85.1007C66.0993 85.1935 65.846 85.2952 65.5927 85.4058C65.582 85.4094 65.5712 85.4147 65.5605 85.4183C64.9219 85.7001 64.3278 86.0177 63.789 86.3602C61.9301 87.2023 60.0265 87.9087 58.098 88.4832C57.834 88.2887 57.4308 88.1585 56.9777 88.1442C56.9509 88.1424 56.9242 88.1424 56.8974 88.1424C56.1231 88.1424 55.497 88.485 55.4845 88.9274C55.4809 89.0094 55.4987 89.0879 55.5344 89.1629C54.6424 89.3716 53.7451 89.5518 52.8459 89.7052C52.6033 89.6517 52.3429 89.6178 52.0717 89.6089C52.0235 89.6071 51.9771 89.6071 51.9308 89.6071C51.2047 89.6071 50.5606 89.7908 50.136 90.0852C48.4769 90.2672 46.8107 90.3564 45.1444 90.3564C44.4433 90.3564 43.7404 90.3403 43.041 90.3082C42.8912 88.5617 41.3409 86.5136 38.8932 84.7261L38.8915 84.7243C38.8808 84.7172 38.87 84.7082 38.8593 84.7011C38.8522 84.6957 38.8451 84.6904 38.8379 84.6868C38.8361 84.685 38.8344 84.6833 38.8326 84.6833C37.5963 83.7877 36.1352 82.9599 34.51 82.2695C34.5064 82.2677 34.5028 82.266 34.4974 82.2642C34.4903 82.2624 34.4832 82.2588 34.4742 82.2552C34.4618 82.2499 34.4474 82.2445 34.435 82.2374C31.7643 81.1135 29.1275 80.5622 26.9457 80.5622C24.3857 80.5622 22.4536 81.3222 21.8257 82.8101C21.7953 82.8832 21.7686 82.9581 21.7436 83.0349C21.1852 82.3676 20.6428 81.6808 20.1183 80.9744C20.0559 80.8923 19.9935 80.8084 19.9329 80.7264C20.8088 79.5061 20.0827 76.8444 18.1738 74.3896C18.1559 74.3664 18.1381 74.345 18.1203 74.3218C18.1185 74.3201 18.1167 74.3183 18.1167 74.3165C18.1114 74.3093 18.106 74.304 18.1007 74.2969C18.0989 74.2951 18.0971 74.2915 18.0953 74.2897C18.0846 74.2772 18.0739 74.2648 18.0632 74.2505C18.0632 74.2487 18.0614 74.2487 18.0614 74.2469C18.0561 74.2416 18.0525 74.2362 18.0471 74.2309C18.0453 74.2273 18.0418 74.2237 18.0382 74.2184C18.0329 74.213 18.0293 74.2077 18.0257 74.2023C18.0221 74.1987 18.0186 74.1934 18.0151 74.1898C18.0097 74.1827 18.0043 74.1773 17.9989 74.1702C17.9936 74.1631 17.9883 74.1559 17.9829 74.1506C17.9793 74.1452 17.9758 74.1417 17.9722 74.1381C17.9669 74.131 17.9633 74.1256 17.9579 74.1203C17.9543 74.1167 17.9526 74.1131 17.949 74.1095C17.9419 74.1006 17.933 74.0899 17.9259 74.081C16.8679 72.7965 15.6709 71.8171 14.563 71.2462C14.0171 69.9386 13.5353 68.6149 13.1161 67.2769C19.0444 70.7913 25.7808 72.636 32.5779 72.7055C34.7811 76.4323 39.3481 78.937 44.5842 78.937C44.8625 78.937 45.1444 78.9299 45.4263 78.9156C52.9655 78.5303 58.8152 73.0855 58.4923 66.7524C58.437 65.6766 58.2087 64.6455 57.8287 63.6768C60.7741 61.222 63.2698 58.4104 65.2982 55.3527C66.2598 56.2108 67.4016 56.8423 68.6879 57.167C69.3319 57.3293 69.9795 57.406 70.6218 57.406C74.948 57.406 79.0833 53.8773 80.3838 48.7305C81.877 42.8201 79.0601 37.0097 74.0934 35.7573C73.4512 35.5949 72.8036 35.5165 72.1596 35.5165C72.0169 35.5165 71.8741 35.52 71.7332 35.5272C72.1043 26.9158 69.6263 18.1261 64.0744 10.6744C63.3822 9.7467 62.658 8.85828 61.9016 8.0091C63.1308 8.14468 64.3545 8.33021 65.5694 8.56213C64.5454 7.19381 63.4536 5.87544 62.2816 4.61594C60.4797 4.03971 58.6439 3.57587 56.7903 3.22621C55.9019 2.5358 54.9885 1.88643 54.0537 1.28165C66.6327 2.74096 78.6069 9.18118 86.7688 20.1367C102.484 41.2324 98.1239 71.0732 77.0281 86.7919C68.4827 93.159 58.503 96.231 48.6072 96.2292ZM46.9124 87.9141C46.1399 87.9141 45.5172 88.2584 45.5029 88.699C45.4887 89.1575 46.1327 89.5518 46.9427 89.5785C46.9712 89.5785 46.9997 89.5785 47.0265 89.5785C47.799 89.5785 48.4216 89.236 48.4359 88.7936C48.4502 88.3351 47.8061 87.9426 46.9962 87.9159C46.9676 87.9141 46.9391 87.9141 46.9124 87.9141ZM39.9297 80.3553C39.5533 80.3553 39.2518 80.4802 39.1287 80.7264C38.9003 81.1813 39.3678 81.8753 40.1706 82.2784C40.5399 82.4622 40.9145 82.5532 41.2356 82.5532C41.6138 82.5532 41.9136 82.4265 42.0367 82.1803C42.265 81.7254 41.7976 81.0314 40.9948 80.63C40.6255 80.4445 40.2491 80.3553 39.9297 80.3553ZM34.6919 78.2698C34.0693 78.2698 33.5715 78.4767 33.3664 78.8835C32.99 79.6363 33.7624 80.787 35.0915 81.4525C35.7016 81.7575 36.3225 81.9074 36.8523 81.9074C37.4767 81.9074 37.9763 81.6986 38.1796 81.2919C38.5543 80.539 37.7836 79.3919 36.4563 78.7265C35.8443 78.4197 35.2236 78.2698 34.6919 78.2698ZM76.5786 64.7864C74.0221 64.7864 70.4576 66.3403 67.1965 69.1001C62.3921 73.1658 60.0622 78.3162 61.9961 80.5979C62.6169 81.3329 63.6035 81.6826 64.8166 81.6826C67.3731 81.6826 70.9376 80.1287 74.1969 77.3689C79.0013 73.3014 81.3311 68.1528 79.3973 65.8693C78.7765 65.1343 77.7917 64.7864 76.5786 64.7864ZM23.1101 73.8205C22.6677 73.8205 22.318 73.949 22.1253 74.2201C21.6151 74.9444 22.434 76.402 23.9575 77.4777C24.9119 78.1521 25.9146 78.516 26.6568 78.516C27.0974 78.516 27.4471 78.3858 27.638 78.1164C28.1482 77.3974 27.34 75.9524 25.8379 74.8784C25.8361 74.8767 25.8343 74.8767 25.8343 74.8749C25.8254 74.8695 25.8165 74.8642 25.8094 74.8588C25.7969 74.8499 25.7861 74.841 25.7737 74.8338C25.7683 74.8285 25.7594 74.8232 25.7541 74.8196C25.6827 74.7696 25.6131 74.7232 25.5418 74.6786C24.6712 74.1203 23.7827 73.8205 23.1101 73.8205ZM18.7571 72.2703C18.6109 72.2703 18.4842 72.3113 18.3915 72.4005C18.0917 72.6859 18.2558 73.3478 18.7607 73.8776C19.1068 74.2433 19.5261 74.4503 19.849 74.4503C19.9953 74.4503 20.1219 74.4093 20.2147 74.3201C20.5162 74.0364 20.3503 73.3745 19.8472 72.8447C19.4994 72.4772 19.0818 72.2703 18.7571 72.2703ZM84.7297 59.0152C84.0803 59.0152 83.2936 59.7074 82.8422 60.7439C82.307 61.9641 82.4354 63.1987 83.1258 63.5019C83.2293 63.5483 83.3399 63.5697 83.4559 63.5697C84.1053 63.5697 84.892 62.8775 85.3451 61.841C85.8803 60.619 85.7519 59.3863 85.0597 59.083C84.9562 59.0366 84.8439 59.0152 84.7297 59.0152ZM84.4531 54.5962C84.0571 54.5962 83.5808 55.0173 83.3025 55.647C82.9796 56.3892 83.0563 57.1402 83.4773 57.324C83.5415 57.3525 83.6075 57.365 83.6789 57.365C84.0732 57.365 84.5513 56.944 84.826 56.3124C85.1525 55.5703 85.074 54.8193 84.653 54.6373C84.5905 54.6087 84.5227 54.5962 84.4531 54.5962ZM74.3682 31.8789C74.7892 33.0331 75.7472 33.786 76.6802 33.786C76.8729 33.786 77.0656 33.7539 77.2529 33.6843C78.3358 33.29 78.805 31.8379 78.2966 30.4446C77.8755 29.2921 76.9175 28.5393 75.9845 28.5393C75.7918 28.5393 75.5992 28.5714 75.4118 28.6392C74.7553 28.8782 74.3272 29.5026 74.2005 30.2679C74.2005 30.2733 74.1987 30.2804 74.1987 30.2858C74.1969 30.2912 74.1969 30.2947 74.1969 30.3001C74.1951 30.3001 74.1951 30.3001 74.1951 30.3019C74.122 30.7871 74.1702 31.3276 74.361 31.8611C74.3628 31.8664 74.3664 31.8718 74.3682 31.8789ZM75.1246 19.7977C74.9854 19.7977 74.8659 19.8387 74.7767 19.9226C74.4913 20.1937 74.6483 20.8253 75.1264 21.3302C75.46 21.678 75.8596 21.8778 76.1682 21.8778C76.3074 21.8778 76.4269 21.8368 76.5161 21.753C76.8016 21.48 76.6446 20.8503 76.1629 20.3454C75.8329 19.9957 75.435 19.7977 75.1246 19.7977ZM72.75 15.4002C72.5377 15.4002 72.354 15.4608 72.2184 15.5893C71.7795 16.0032 72.0204 16.9665 72.7536 17.739C73.2585 18.2724 73.8669 18.5739 74.3396 18.5739C74.5519 18.5739 74.7375 18.5132 74.8731 18.383C75.3102 17.9673 75.0693 17.0058 74.336 16.2333C73.8312 15.7017 73.2228 15.4002 72.75 15.4002ZM66.2545 6.08417C67.0698 7.10996 67.8458 8.16787 68.5862 9.24896C71.3229 9.9697 73.9971 10.9366 76.5714 12.1569C73.3799 9.65572 69.9046 7.63089 66.2545 6.08417Z" fill="#DE701F"/>
<path d="M21.6208 84.052C20.0223 83.135 18.4648 82.1181 16.9609 81.0067C17.5247 81.2511 18.0563 81.3796 18.5237 81.3796C18.9732 81.3796 19.364 81.26 19.6691 81.0103C19.769 80.9264 19.8564 80.8319 19.9331 80.7266C19.9938 80.8087 20.0561 80.8926 20.1186 80.9746C20.6431 81.6811 21.1855 82.3679 21.7438 83.0351C21.6422 83.358 21.6029 83.6988 21.6208 84.052ZM12.0139 76.3023C11.8533 76.0936 11.6928 75.8831 11.534 75.6708C7.84288 70.7149 5.30241 65.2576 3.8645 59.6202C6.59225 62.7065 9.72137 65.2648 13.1163 67.2771C13.5356 68.6151 14.0173 69.9388 14.5632 71.2465C13.8532 70.8808 13.1788 70.6845 12.6008 70.6845C12.5098 70.6845 12.4242 70.6881 12.3385 70.6988C11.9978 70.7381 11.6999 70.854 11.4555 71.0556C10.4119 71.9155 10.6991 74.0688 12.0139 76.3023Z" fill="#ED941C"/>
<path d="M65.5694 8.56244C64.3545 8.33052 63.1308 8.14499 61.9016 8.00941C60.3227 6.2379 58.61 4.643 56.7903 3.22651C58.6439 3.57617 60.4797 4.04002 62.2816 4.61625C63.4537 5.87575 64.5454 7.19412 65.5694 8.56244Z" fill="#ED941C"/>
<path d="M76.5715 12.157C73.9972 10.9367 71.3229 9.9698 68.5862 9.24907C67.8459 8.16797 67.0699 7.11006 66.2546 6.08427C69.9047 7.63099 73.3799 9.65583 76.5715 12.157Z" fill="#ED941C"/>
<path d="M48.725 94.6005C45.7046 94.6005 42.6861 94.3043 39.714 93.7209C41.2643 93.4159 42.3918 92.7219 42.8431 91.6515C43.018 91.2341 43.0804 90.7827 43.0411 90.3082C43.7405 90.3403 44.4434 90.3563 45.1445 90.3563C46.8108 90.3563 48.477 90.2671 50.1361 90.0852C49.8204 90.3046 49.6277 90.5847 49.6188 90.8969C49.5938 91.6515 50.6535 92.2973 51.9843 92.3401C52.0307 92.3419 52.0754 92.3437 52.12 92.3437C53.3902 92.3437 54.416 91.78 54.4392 91.0521C54.4588 90.4509 53.7898 89.9193 52.846 89.7052C53.7452 89.5518 54.6425 89.3716 55.5345 89.1628C55.7004 89.5143 56.2553 89.7837 56.9225 89.8069C56.9511 89.8069 56.9796 89.8069 57.0081 89.8069C57.7788 89.8069 58.4033 89.4661 58.4157 89.0219C58.4229 88.8221 58.3015 88.633 58.0981 88.4832C60.0266 87.9087 61.9302 87.2022 63.7891 86.3602C62.1371 87.4128 61.0275 88.6919 60.8134 89.7908C60.8134 89.7926 60.8116 89.7944 60.8116 89.7962C60.8116 89.7997 60.8099 89.8033 60.8099 89.8069C60.8099 89.8104 60.808 89.8122 60.808 89.8158C60.808 89.8194 60.8081 89.8211 60.8063 89.8247C60.8063 89.8283 60.8045 89.8336 60.8045 89.8372C60.8045 89.839 60.8045 89.8426 60.8027 89.8443V89.8461C60.7456 90.1833 60.776 90.5044 60.9026 90.7934C61.2594 91.614 62.3209 92.0297 63.7232 92.0297C63.7571 92.0297 63.7909 92.0297 63.8266 92.0297C58.9366 93.7548 53.829 94.6005 48.725 94.6005ZM72.0758 88.1264C72.7716 87.2361 73.041 86.3477 72.7324 85.6395C72.4808 85.0597 71.8778 84.6832 71.0536 84.5102C71.0518 84.5102 71.0501 84.5102 71.0483 84.5102C71.0412 84.5084 71.034 84.5066 71.0269 84.5048C71.0233 84.5048 71.0197 84.5048 71.0179 84.5031C71.0125 84.5031 71.0073 84.5013 71.0001 84.4995C70.9966 84.4995 70.9912 84.4977 70.9858 84.4977C70.9823 84.4959 70.9787 84.4959 70.9751 84.4959C70.968 84.4942 70.9591 84.4924 70.952 84.4906C70.9502 84.4906 70.9502 84.4906 70.9484 84.4906C70.6308 84.4317 70.2829 84.4032 69.91 84.4032C68.8628 84.4032 67.6265 84.6333 66.3492 85.1007C68.3312 84.0482 70.2562 82.8315 72.108 81.4524C82.6211 73.6207 88.7349 62.0266 90.0444 49.7527C90.2549 51.7383 91.0648 53.2029 92.1049 53.2565C92.1245 53.2582 92.1441 53.2582 92.1638 53.2582C92.7703 53.2582 93.3465 52.773 93.7961 51.972C93.3983 58.2623 91.7445 64.4189 88.8918 70.0349C88.8276 69.4997 88.6243 69.0644 88.2728 68.7754C87.9696 68.5292 87.5825 68.4115 87.1382 68.4115C86.1178 68.4115 84.794 69.0323 83.5024 70.1152C83.497 70.1205 83.4917 70.1241 83.4863 70.1277C83.4846 70.1312 83.4828 70.133 83.4792 70.1348C83.4774 70.1366 83.4738 70.1401 83.4721 70.1419C83.4667 70.1455 83.4614 70.1509 83.456 70.1544C83.456 70.1562 83.4542 70.1562 83.4542 70.1562C82.8922 70.6325 82.3375 71.1963 81.8165 71.8349C80.6444 73.2693 79.8755 74.7946 79.5901 76.0826V76.0844C79.5883 76.0915 79.5865 76.1005 79.5847 76.1076C79.5847 76.1094 79.5847 76.1129 79.583 76.1147C79.583 76.1201 79.5811 76.1237 79.5811 76.129C79.3314 77.2975 79.4866 78.2644 80.1092 78.7729C80.4107 79.0209 80.7978 79.1368 81.242 79.1368C81.8415 79.1368 82.5462 78.9227 83.2848 78.5285C81.0851 81.1545 78.55 83.5647 75.6885 85.6966C74.5128 86.5725 73.3068 87.3824 72.0758 88.1264ZM22.7285 86.7759C18.1739 83.7841 14.0386 79.9557 10.5615 75.3316C11.3483 76.1647 12.1564 76.9621 12.9878 77.7257C13.0556 77.8131 13.1251 77.8987 13.1965 77.9844C13.7495 78.6534 14.3383 79.2403 14.9342 79.7291C17.1784 82.1161 19.6332 84.214 22.2486 86.0194C22.386 86.2692 22.5465 86.5225 22.7285 86.7759ZM90.287 46.2793C90.3369 44.7343 90.312 43.1823 90.2121 41.6302C90.5742 41.6106 90.9203 41.5267 91.2414 41.3733C92.0157 41.004 92.5688 40.2761 92.8988 39.2914C93.2181 40.8327 93.4607 42.3813 93.6249 43.9333C93.3269 43.589 92.9826 43.3856 92.6062 43.366C92.5866 43.366 92.5687 43.3642 92.5491 43.3642C91.5964 43.3642 90.7241 44.5559 90.287 46.2793Z" fill="#D45621"/>
<path d="M22.2486 86.0197C19.6332 84.2143 17.1784 82.1163 14.9341 79.7294C15.6192 80.2931 16.3114 80.7248 16.9607 81.0067C18.4647 82.1181 20.0221 83.135 21.6206 84.052C21.6563 84.6764 21.8721 85.34 22.2486 86.0197Z" fill="#E3741E"/>
<path d="M85.0829 21.2788C84.6654 21.0398 84.2551 20.8542 83.8573 20.7258C83.3952 19.9247 82.9081 19.1327 82.3943 18.3513C82.4889 18.2728 82.5692 18.1836 82.6352 18.0819C83.1936 18.7527 83.7377 19.4413 84.2658 20.1513C84.5423 20.5242 84.8171 20.9006 85.0829 21.2788Z" fill="#D45621"/>
<path d="M23.8005 9.51514C24.8334 8.80154 25.8789 8.19856 26.8993 7.71509C25.8503 8.26992 24.8174 8.86933 23.8005 9.51514Z" fill="#DE701F"/>
</svg>
